<?xml version="1.0" encoding="UTF-8" standalone="no"?>
<!-- Created with Inkscape (http://www.inkscape.org/) -->

<svg
   width="512"
   height="512"
   viewBox="0 0 135.46666 135.46667"
   version="1.1"
   id="svg1"
   inkscape:version="1.4.2 (ebf0e940, 2025-05-08)"
   sodipodi:docname="DE-PC.svg"
   inkscape:export-filename="../icon_512x512.png"
   inkscape:export-xdpi="96"
   inkscape:export-ydpi="96"
   xmlns:inkscape="http://www.inkscape.org/namespaces/inkscape"
   xmlns:sodipodi="http://sodipodi.sourceforge.net/DTD/sodipodi-0.dtd"
   xmlns="http://www.w3.org/2000/svg"
   xmlns:svg="http://www.w3.org/2000/svg">
  <sodipodi:namedview
     id="namedview1"
     pagecolor="#535353"
     bordercolor="#000000"
     borderopacity="0.25"
     inkscape:showpageshadow="2"
     inkscape:pageopacity="0.0"
     inkscape:pagecheckerboard="true"
     inkscape:deskcolor="#d1d1d1"
     inkscape:document-units="mm"
     inkscape:zoom="0.61910982"
     inkscape:cx="432.87958"
     inkscape:cy="265.70407"
     inkscape:window-width="1464"
     inkscape:window-height="916"
     inkscape:window-x="54"
     inkscape:window-y="38"
     inkscape:window-maximized="0"
     inkscape:current-layer="layer1" />
  <defs
     id="defs1">
    <clipPath
       clipPathUnits="userSpaceOnUse"
       id="clipPath1266">
      <rect
         style="fill:none;fill-opacity:1;stroke:#000000;stroke-width:0.954887;stroke-opacity:1"
         id="rect1267"
         width="122.47835"
         height="77.879379"
         x="7.3640656"
         y="5.9964404"
         ry="2.500864"
         rx="1.5699177" />
    </clipPath>
    <clipPath
       clipPathUnits="userSpaceOnUse"
       id="clipPath1267">
      <rect
         style="fill:none;fill-opacity:1;stroke:#000000;stroke-width:0.954887;stroke-opacity:1"
         id="rect1268"
         width="122.47835"
         height="77.879379"
         x="7.3640656"
         y="5.9964404"
         ry="2.500864"
         rx="1.5699177" />
    </clipPath>
    <clipPath
       clipPathUnits="userSpaceOnUse"
       id="clipPath1268">
      <rect
         style="fill:none;fill-opacity:1;stroke:#000000;stroke-width:0.954887;stroke-opacity:1"
         id="rect1269"
         width="122.47835"
         height="77.879379"
         x="7.3640656"
         y="5.9964404"
         ry="2.500864"
         rx="1.5699177" />
    </clipPath>
    <clipPath
       clipPathUnits="userSpaceOnUse"
       id="clipPath1277">
      <rect
         style="fill:none;fill-opacity:1;stroke:#000000;stroke-width:3;stroke-dasharray:none;stroke-opacity:1"
         id="rect1277"
         width="119.97695"
         height="74.327248"
         x="8.4004421"
         y="7.7725258"
         ry="5.4902802"
         rx="5.4902806" />
    </clipPath>
  </defs>
  <g
     inkscape:label="Layer 1"
     inkscape:groupmode="layer"
     id="layer1">
    <text
       xml:space="preserve"
       style="font-style:normal;font-variant:normal;font-weight:bold;font-stretch:normal;font-size:49.3889px;font-family:Arial;-inkscape-font-specification:'Arial Bold';text-align:start;writing-mode:lr-tb;direction:ltr;text-anchor:start;fill:#808080;stroke-width:0.292212"
       x="146.85381"
       y="123.86774"
       id="text146"><tspan
         sodipodi:role="line"
         id="tspan146"
         style="font-style:normal;font-variant:normal;font-weight:bold;font-stretch:normal;font-size:49.3889px;font-family:Arial;-inkscape-font-specification:'Arial Bold';fill:#808080;stroke-width:0.292212"
         x="146.85381"
         y="123.86774">PC</tspan></text>
    <g
       fill="#ffffff"
       id="g149"
       transform="matrix(1.2304217,0,0,1.2304217,9.1248758,89.629831)" />
    <path
       id="path151"
       d="m 280.72221,102.96971 a 1.9686747,1.9686747 0 0 1 -1.96867,1.96867 1.9686747,1.9686747 0 0 1 -1.96868,-1.96867 1.9686747,1.9686747 0 0 1 1.96868,-1.96868 1.9686747,1.9686747 0 0 1 1.96867,1.96868 z m -7.38253,0 a 1.9686747,1.9686747 0 0 1 -1.96867,1.96867 1.9686747,1.9686747 0 0 1 -1.96868,-1.96867 1.9686747,1.9686747 0 0 1 1.96868,-1.96868 1.9686747,1.9686747 0 0 1 1.96867,1.96868 z m 1.72264,-14.765217 a 19.686747,19.686747 0 0 0 -19.68665,19.686647 19.686747,19.686747 0 0 0 19.68665,19.68717 19.686747,19.686747 0 0 0 19.68666,-19.68717 19.686747,19.686747 0 0 0 -19.68666,-19.686647 z m -6.76754,8.61291 a 6.1521085,6.1521085 0 0 1 6.15208,6.152077 6.1521085,6.1521085 0 0 1 -6.15208,6.15259 6.1521085,6.1521085 0 0 1 -6.15208,-6.15259 6.1521085,6.1521085 0 0 1 6.15208,-6.152077 z m 13.53458,0 a 6.1521085,6.1521085 0 0 1 6.15259,6.152077 6.1521085,6.1521085 0 0 1 -6.15259,6.15259 6.1521085,6.1521085 0 0 1 -6.15209,-6.15259 6.1521085,6.1521085 0 0 1 6.15209,-6.152077 z m -14.14953,13.535087 h 14.76498 l -7.38249,12.30416 z"
       style="fill:#808080;stroke-width:1.23042" />
    <text
       xml:space="preserve"
       style="font-stretch:condensed;font-size:31.75px;font-family:'Arial Narrow';-inkscape-font-specification:'Arial Narrow Condensed';text-align:start;writing-mode:lr-tb;direction:ltr;text-anchor:start;fill:#808080;stroke:#000000;stroke-width:2.64583;stroke-opacity:1"
       x="153.43314"
       y="70.490067"
       id="text476"><tspan
         sodipodi:role="line"
         id="tspan476"
         style="font-size:31.75px;fill:#808080;fill-opacity:1;stroke:none;stroke-width:2.64583"
         x="153.43314"
         y="70.490067">Assets</tspan></text>
    <path
       id="rect2"
       style="fill:#ffffff;fill-opacity:1;stroke:none;stroke-width:2.64583;stroke-dasharray:none;stroke-opacity:1"
       d="M 12.362553 0.20515544 C 5.5135968 0.20515544 0 5.7187533 0 12.567708 L 0 121.54038 C 0 128.38933 5.5135968 134.4321 12.362553 134.4321 L 122.44989 134.4321 C 129.29885 134.4321 135.40104 128.38933 135.40104 121.54038 L 135.40104 12.567708 C 135.40104 5.7187533 129.29885 0.20515544 122.44989 0.20515544 L 12.362553 0.20515544 z M 12.854513 5.9965332 L 124.3521 5.9965332 C 127.39371 5.9965332 129.8422 8.4450221 129.8422 11.486637 L 129.8422 78.385396 C 129.8422 81.427012 127.39371 83.876017 124.3521 83.876017 L 12.854513 83.876017 C 9.8128973 83.876017 7.3638916 81.427012 7.3638916 78.385396 L 7.3638916 11.486637 C 7.3638916 8.4450221 9.8128973 5.9965332 12.854513 5.9965332 z M 113.61115 90.266325 C 117.9359 90.266325 121.44857 91.544455 124.14953 94.100716 C 125.75724 95.611965 126.96302 97.782368 127.76688 100.61195 L 120.70116 102.2997 C 120.28315 100.46691 119.40678 99.019968 118.07238 97.958879 C 116.75406 96.897789 115.14652 96.367244 113.24942 96.367244 C 110.62885 96.367244 108.49846 97.307755 106.85859 99.188778 C 105.23481 101.0698 104.42308 104.11658 104.42308 108.32879 C 104.42308 112.79823 105.22659 115.98149 106.83431 117.87859 C 108.44202 119.77569 110.53239 120.72441 113.10472 120.72441 C 115.00182 120.72441 116.63348 120.12152 118.00003 118.91574 C 119.36659 117.70996 120.34712 115.81251 120.94197 113.2241 L 127.86351 115.41879 C 126.80242 119.2773 125.03377 122.14707 122.55789 124.02809 C 120.0981 125.89303 116.97127 126.82533 113.17707 126.82533 C 108.48255 126.82533 104.62405 125.22601 101.60155 122.02666 C 98.579052 118.81124 97.06746 114.42219 97.06746 108.85951 C 97.06746 102.97528 98.586749 98.409211 101.62532 95.161633 C 104.6639 91.897979 108.6594 90.266325 113.61115 90.266325 z M 65.379472 90.868872 L 76.834587 90.868872 C 81.175408 90.868872 84.005151 91.045892 85.323474 91.399589 C 87.349191 91.930134 89.044981 93.087685 90.411536 94.872245 C 91.778091 96.640728 92.46154 98.931717 92.46154 101.74521 C 92.46154 103.91562 92.067478 105.7402 91.2797 107.2193 C 90.491921 108.69839 89.487274 109.86415 88.265413 110.71624 C 87.05963 111.55225 85.829731 112.10691 84.575716 112.38022 C 82.871542 112.71784 80.403534 112.88665 77.172034 112.88665 L 72.518054 112.88665 L 72.518054 126.22279 L 65.379472 126.22279 L 65.379472 90.868872 z M 72.518054 96.849902 L 72.518054 106.88185 L 76.424792 106.88185 C 79.238288 106.88185 81.119309 106.69713 82.067859 106.32736 C 83.016409 105.95759 83.755783 105.37881 84.286328 104.59103 C 84.83295 103.80325 85.106433 102.88686 85.106433 101.84185 C 85.106433 100.55568 84.728277 99.494588 83.972652 98.658577 C 83.217028 97.822567 82.260612 97.299717 81.10306 97.090715 C 80.250973 96.929943 78.538761 96.849902 75.966423 96.849902 L 72.518054 96.849902 z " />
    <path
       id="path476"
       style="fill:#ffffff;fill-opacity:1;stroke:none;stroke-width:0.529166;stroke-dasharray:none;stroke-opacity:1"
       d="m 222.0581,88.040632 c -1.36979,0 -2.47251,1.10272 -2.47251,2.47252 v 21.794528 c 0,1.36979 1.10272,2.57835 2.47251,2.57835 h 22.01746 c 1.3698,0 2.59023,-1.20856 2.59023,-2.57835 V 90.513152 c 0,-1.3698 -1.22043,-2.47252 -2.59023,-2.47252 z m 20.24972,18.012238 c 0.86495,0 1.56748,0.25562 2.10767,0.76688 0.32154,0.30225 0.5627,0.73633 0.72347,1.30224 l -1.41314,0.33755 c -0.0836,-0.36655 -0.25888,-0.65594 -0.52576,-0.86816 -0.26366,-0.21222 -0.58517,-0.31833 -0.96459,-0.31833 -0.52411,0 -0.95019,0.1881 -1.27817,0.56431 -0.32475,0.3762 -0.4871,0.98556 -0.4871,1.828 0,0.89389 0.1607,1.53054 0.48225,1.90996 0.32154,0.37942 0.73961,0.56917 1.25408,0.56917 0.37942,0 0.70575,-0.12058 0.97906,-0.36174 0.27331,-0.24115 0.46942,-0.62064 0.58839,-1.13833 l 1.38431,0.43894 c -0.21222,0.7717 -0.56595,1.34566 -1.06113,1.72186 -0.49195,0.37299 -1.11732,0.55945 -1.87616,0.55945 -0.9389,0 -1.7106,-0.31986 -2.3151,-0.95973 -0.6045,-0.64309 -0.90682,-1.5209 -0.90682,-2.63343 0,-1.17685 0.30386,-2.09006 0.91157,-2.73958 0.60772,-0.65273 1.40682,-0.97906 2.39717,-0.97906 z m -9.64634,0.12051 h 2.29102 c 0.86817,0 1.43412,0.0354 1.69778,0.10614 0.40514,0.10611 0.7443,0.33762 1.01761,0.69453 0.27331,0.3537 0.41,0.8119 0.41,1.3746 0,0.43408 -0.0788,0.79899 -0.23636,1.09481 -0.15756,0.29582 -0.35849,0.52897 -0.60286,0.69939 -0.24116,0.1672 -0.48714,0.27814 -0.73794,0.3328 -0.34084,0.0675 -0.83444,0.10128 -1.48074,0.10128 h -0.93079 v 2.66723 h -1.42772 z m 1.42772,1.1962 v 2.00639 h 0.78134 c 0.5627,0 0.93891,-0.0369 1.12862,-0.11089 0.18971,-0.074 0.33758,-0.18971 0.44369,-0.34727 0.10933,-0.15756 0.16402,-0.34083 0.16402,-0.54984 0,-0.25723 -0.0756,-0.46945 -0.22675,-0.63665 -0.15113,-0.1672 -0.34241,-0.27177 -0.57392,-0.31357 -0.17042,-0.0322 -0.51286,-0.0482 -1.02733,-0.0482 z"
       sodipodi:nodetypes="ssssssssssccccscsssscccscscscsccssccsccccccsscsscsc" />
    <g
       id="g1276"
       transform="matrix(0.9791783,0,0,0.97966893,1.5354801,0.78063848)"
       style="stroke-width:1.02101"
       clip-path="url(#clipPath1277)">
      <path
         d="M 5.9512782,4.5405001 H 130.56976 V 31.770593 H 5.9512782 Z"
         id="path984"
         sodipodi:nodetypes="ccccc"
         style="stroke-width:0.156409"
         clip-path="url(#clipPath1268)" />
      <path
         d="M 5.9512782,31.256079 H 130.56976 V 58.228927 H 5.9512782 Z"
         fill="#dd0000"
         id="path985"
         sodipodi:nodetypes="ccccc"
         style="stroke-width:0.156409"
         clip-path="url(#clipPath1267)" />
      <path
         d="M 5.9512782,57.971681 H 130.56976 V 84.68726 H 5.9512782 Z"
         fill="#ffce00"
         id="path986"
         sodipodi:nodetypes="ccccc"
         style="stroke-width:0.156409"
         clip-path="url(#clipPath1266)" />
    </g>
  </g>
</svg>
